<mxfile host="app.diagrams.net" agent="Mozilla/5.0 (Windows NT 10.0; Win64; x64) AppleWebKit/537.36 (KHTML, like Gecko) Chrome/134.0.0.0 Safari/537.36" version="26.2.5">
  <diagram name="Strona-1" id="oP_g_O8Ud1DlUJxClu0O">
    <mxGraphModel dx="1683" dy="622" grid="0" gridSize="10" guides="1" tooltips="1" connect="1" arrows="1" fold="1" page="0" pageScale="1" pageWidth="827" pageHeight="1169" math="0" shadow="0">
      <root>
        <mxCell id="0" />
        <mxCell id="1" parent="0" />
        <mxCell id="PkOIic1_x3iduvKtqaCq-1" value="Użytkownik" style="shape=umlActor;verticalLabelPosition=bottom;verticalAlign=top;html=1;outlineConnect=0;" vertex="1" parent="1">
          <mxGeometry x="-370" y="71" width="120" height="240" as="geometry" />
        </mxCell>
        <mxCell id="PkOIic1_x3iduvKtqaCq-2" value="" style="whiteSpace=wrap;html=1;aspect=fixed;" vertex="1" parent="1">
          <mxGeometry x="-114" y="27" width="328" height="328" as="geometry" />
        </mxCell>
        <mxCell id="PkOIic1_x3iduvKtqaCq-3" value="Aplikacja" style="text;html=1;align=center;verticalAlign=middle;whiteSpace=wrap;rounded=0;" vertex="1" parent="1">
          <mxGeometry x="-96" y="31" width="60" height="30" as="geometry" />
        </mxCell>
        <mxCell id="PkOIic1_x3iduvKtqaCq-4" value="" style="ellipse;whiteSpace=wrap;html=1;" vertex="1" parent="1">
          <mxGeometry x="28" y="58" width="120" height="64" as="geometry" />
        </mxCell>
        <mxCell id="PkOIic1_x3iduvKtqaCq-5" value="" style="ellipse;whiteSpace=wrap;html=1;" vertex="1" parent="1">
          <mxGeometry x="28" y="144" width="120" height="64" as="geometry" />
        </mxCell>
        <mxCell id="PkOIic1_x3iduvKtqaCq-6" value="" style="ellipse;whiteSpace=wrap;html=1;" vertex="1" parent="1">
          <mxGeometry x="28" y="230" width="120" height="64" as="geometry" />
        </mxCell>
        <mxCell id="PkOIic1_x3iduvKtqaCq-7" value="" style="endArrow=none;html=1;rounded=0;fontSize=12;startSize=8;endSize=8;curved=1;entryX=0;entryY=0.5;entryDx=0;entryDy=0;" edge="1" parent="1" target="PkOIic1_x3iduvKtqaCq-5">
          <mxGeometry width="50" height="50" relative="1" as="geometry">
            <mxPoint x="-224" y="178" as="sourcePoint" />
            <mxPoint x="225" y="174" as="targetPoint" />
          </mxGeometry>
        </mxCell>
        <mxCell id="PkOIic1_x3iduvKtqaCq-8" value="" style="endArrow=none;html=1;rounded=0;fontSize=12;startSize=8;endSize=8;curved=1;entryX=0;entryY=0.5;entryDx=0;entryDy=0;" edge="1" parent="1" target="PkOIic1_x3iduvKtqaCq-4">
          <mxGeometry width="50" height="50" relative="1" as="geometry">
            <mxPoint x="-221" y="179" as="sourcePoint" />
            <mxPoint x="225" y="174" as="targetPoint" />
          </mxGeometry>
        </mxCell>
        <mxCell id="PkOIic1_x3iduvKtqaCq-9" value="" style="endArrow=none;html=1;rounded=0;fontSize=12;startSize=8;endSize=8;curved=1;entryX=0;entryY=0.5;entryDx=0;entryDy=0;" edge="1" parent="1" target="PkOIic1_x3iduvKtqaCq-6">
          <mxGeometry width="50" height="50" relative="1" as="geometry">
            <mxPoint x="-219" y="180" as="sourcePoint" />
            <mxPoint x="225" y="174" as="targetPoint" />
          </mxGeometry>
        </mxCell>
        <mxCell id="PkOIic1_x3iduvKtqaCq-10" value="Logowanie" style="text;html=1;align=center;verticalAlign=middle;whiteSpace=wrap;rounded=0;" vertex="1" parent="1">
          <mxGeometry x="58" y="75" width="60" height="30" as="geometry" />
        </mxCell>
        <mxCell id="PkOIic1_x3iduvKtqaCq-11" value="Rezerwacja wizyt" style="text;html=1;align=center;verticalAlign=middle;whiteSpace=wrap;rounded=0;" vertex="1" parent="1">
          <mxGeometry x="58" y="161" width="60" height="30" as="geometry" />
        </mxCell>
        <mxCell id="PkOIic1_x3iduvKtqaCq-12" value="Wyświetlanie historii wizyt" style="text;html=1;align=center;verticalAlign=middle;whiteSpace=wrap;rounded=0;" vertex="1" parent="1">
          <mxGeometry x="58" y="247" width="60" height="30" as="geometry" />
        </mxCell>
      </root>
    </mxGraphModel>
  </diagram>
</mxfile>
